<svg width="256" height="256" viewBox="0 0 60 60" fill="none" xmlns="http://www.w3.org/2000/svg">
<path d="M25.75 0.250001C21.326 0.248512 16.9776 1.39803 13.1323 3.5856C9.28696 5.77318 6.07691 8.92354 3.81756 12.7271C1.5582 16.5308 0.327279 20.8567 0.245742 25.28C0.164204 29.7033 1.23486 34.0717 3.35249 37.956L0.334995 48.5385C0.228818 48.9101 0.22599 49.3036 0.326814 49.6767C0.427638 50.0498 0.628297 50.3883 0.907194 50.6558C1.18609 50.9234 1.53267 51.1098 1.90962 51.195C2.28658 51.2802 2.67963 51.261 3.04649 51.1395L12.983 47.8287C14.972 48.9805 17.131 49.8687 19.4132 50.4552C17.3966 46.1103 16.7636 41.2507 17.5998 36.5341C18.4359 31.8175 20.701 27.4717 24.0884 24.0847C27.4757 20.6978 31.8219 18.4334 36.5386 17.5978C41.2553 16.7623 46.1148 17.396 50.4595 19.4132C49.0513 13.93 45.859 9.07092 41.3854 5.60149C36.9118 2.13206 31.4112 0.249382 25.75 0.250001V0.250001ZM59.75 40.625C59.75 43.1365 59.2553 45.6235 58.2942 47.9438C57.3331 50.2642 55.9243 52.3725 54.1484 54.1484C52.3725 55.9243 50.2642 57.3331 47.9438 58.2942C45.6235 59.2553 43.1365 59.75 40.625 59.75C38.1135 59.75 35.6265 59.2553 33.3062 58.2942C30.9858 57.3331 28.8775 55.9243 27.1016 54.1484C25.3257 52.3725 23.9169 50.2642 22.9558 47.9438C21.9947 45.6235 21.5 43.1365 21.5 40.625C21.5 35.5527 23.5149 30.6882 27.1016 27.1016C30.6882 23.5149 35.5527 21.5 40.625 21.5C45.6973 21.5 50.5618 23.5149 54.1484 27.1016C57.735 30.6882 59.75 35.5527 59.75 40.625V40.625ZM35.7545 35.7545C36.1535 35.3555 36.3777 34.8143 36.3777 34.25C36.3777 33.6857 36.1535 33.1445 35.7545 32.7455C35.3555 32.3465 34.8143 32.1223 34.25 32.1223C33.6857 32.1223 33.1445 32.3465 32.7455 32.7455L26.3705 39.1205C25.9721 39.519 25.7483 40.0594 25.7483 40.6229C25.7483 41.1863 25.9721 41.7267 26.3705 42.1252L32.7455 48.5002C33.144 48.8993 33.6846 49.1236 34.2485 49.124C34.5277 49.1242 34.8042 49.0694 35.0623 48.9628C35.3203 48.8561 35.5548 48.6997 35.7524 48.5024C35.9499 48.3051 36.1067 48.0708 36.2138 47.8129C36.3208 47.555 36.376 47.2786 36.3762 46.9994C36.3764 46.7202 36.3216 46.4436 36.2149 46.1856C36.1082 45.9276 35.9518 45.6931 35.7545 45.4955L30.8797 40.625L35.7545 35.7545V35.7545ZM43.6297 38.5L46.3795 35.7545C46.7785 35.3555 47.0027 34.8143 47.0027 34.25C47.0027 33.6857 46.7785 33.1445 46.3795 32.7455C45.9805 32.3465 45.4393 32.1223 44.875 32.1223C44.3107 32.1223 43.7695 32.3465 43.3705 32.7455L36.9955 39.1205C36.5971 39.519 36.3733 40.0594 36.3733 40.6229C36.3733 41.1863 36.5971 41.7267 36.9955 42.1252L43.3705 48.5002C43.7689 48.8993 44.3096 49.1236 44.8735 49.124C45.4374 49.1244 45.9784 48.9008 46.3774 48.5024C46.7764 48.1039 47.0008 47.5633 47.0012 46.9994C47.0016 46.4355 46.7779 45.8945 46.3795 45.4955L43.6297 42.75H51.25V44.875C51.25 45.4386 51.4739 45.9791 51.8724 46.3776C52.2709 46.7761 52.8114 47 53.375 47C53.9386 47 54.4791 46.7761 54.8776 46.3776C55.2761 45.9791 55.5 45.4386 55.5 44.875V42.75C55.5 41.6228 55.0522 40.5418 54.2552 39.7448C53.4582 38.9478 52.3772 38.5 51.25 38.5H43.6297V38.5Z" fill="url(#paint0_linear_7_9)"/>
<defs>
<linearGradient id="paint0_linear_7_9" x1="29.9957" y1="0.25" x2="29.9957" y2="59.75" gradientUnits="userSpaceOnUse">
<stop stop-color="#388E3C"/>
<stop offset="1" stop-color="#4CAF50"/>
</linearGradient>
</defs>
</svg>
